<svg id="svg" version="1.1" xmlns="http://www.w3.org/2000/svg" xmlns:xlink="http://www.w3.org/1999/xlink" width="400" height="400" viewBox="0, 0, 400,400"><g id="svgg"><path id="path0" d="M195.285 54.416 C 171.292 56.832,152.691 75.550,150.402 99.583 C 149.859 105.276,148.759 104.800,162.467 104.800 L 174.036 104.800 175.018 105.782 C 176.890 107.654,176.249 111.156,173.883 111.981 C 173.157 112.234,168.288 112.400,161.583 112.400 C 149.000 112.400,150.000 112.089,150.000 116.000 C 150.000 119.914,148.964 119.600,161.863 119.600 C 175.777 119.600,177.174 120.096,175.940 124.600 C 175.233 127.179,175.125 127.200,162.436 127.200 C 149.207 127.200,150.000 126.954,150.000 131.066 C 150.000 134.979,149.381 134.800,162.904 134.800 L 174.261 134.800 175.185 135.784 C 176.447 137.128,176.455 139.664,175.201 140.999 L 174.292 141.966 162.531 142.083 C 152.607 142.182,150.709 142.294,150.378 142.800 C 149.443 144.231,150.158 241.767,151.136 246.098 C 163.715 301.835,244.085 297.584,249.601 240.889 C 250.127 235.481,250.121 105.085,249.594 99.531 C 246.987 72.029,222.486 51.676,195.285 54.416 M136.996 205.324 C 133.607 208.713,134.603 243.845,138.429 255.844 C 146.217 280.273,167.471 297.587,193.400 300.627 C 194.720 300.782,195.932 301.109,196.094 301.354 C 196.446 301.888,196.506 336.857,196.157 337.767 C 195.947 338.316,194.807 338.400,187.537 338.400 C 177.073 338.400,176.400 338.639,176.400 342.363 C 176.400 343.456,176.679 344.123,177.432 344.830 L 178.464 345.800 200.000 345.800 L 221.536 345.800 222.568 344.830 C 223.321 344.123,223.600 343.456,223.600 342.363 C 223.600 338.639,222.927 338.400,212.463 338.400 C 205.193 338.400,204.053 338.316,203.843 337.767 C 203.494 336.857,203.554 301.887,203.906 301.359 C 204.068 301.117,205.873 300.707,207.918 300.448 C 236.193 296.866,258.604 275.478,263.665 247.244 C 264.548 242.317,265.268 212.916,264.613 208.545 C 263.970 204.263,259.795 202.525,256.960 205.360 L 255.600 206.720 255.599 220.660 C 255.597 244.586,254.657 250.683,249.320 261.383 C 229.195 301.732,170.653 301.505,150.494 261.000 C 145.489 250.945,145.118 248.647,144.836 226.000 C 144.581 205.463,144.642 205.988,142.371 204.647 C 140.518 203.552,138.516 203.804,136.996 205.324 " stroke="none" fill="#ffffff" fill-rule="evenodd"></path><path id="path1" d="M171.400 0.218 C 171.180 0.305,169.290 0.646,167.200 0.976 C 165.110 1.305,161.600 1.936,159.400 2.377 C 154.165 3.427,152.184 3.913,143.800 6.209 C 134.049 8.880,121.610 13.750,110.544 19.231 C 100.987 23.964,83.428 34.572,80.800 37.200 C 80.690 37.310,79.070 38.568,77.200 39.996 C 72.475 43.605,72.952 43.209,66.038 49.252 C 58.443 55.890,52.742 61.735,45.606 70.200 C 42.897 73.413,42.719 73.635,39.997 77.200 C 38.568 79.070,37.310 80.690,37.200 80.800 C 36.127 81.873,28.263 93.958,25.227 99.200 C 17.747 112.113,9.679 131.042,6.215 143.800 C 3.395 154.186,2.306 158.949,0.907 167.000 C 0.178 171.194,-0.268 226.318,0.401 229.600 C 0.602 230.590,0.954 232.570,1.183 234.000 C 1.906 238.530,3.614 246.548,4.761 250.800 C 5.206 252.450,5.862 254.880,6.218 256.200 C 12.234 278.468,30.489 313.453,42.977 326.647 C 43.210 326.893,44.390 328.323,45.600 329.824 C 51.611 337.281,61.417 347.082,70.200 354.411 C 71.300 355.329,72.609 356.425,73.110 356.846 C 75.084 358.508,85.159 365.922,87.800 367.657 C 112.997 384.210,136.929 393.688,167.200 399.101 C 172.827 400.108,227.007 400.120,232.800 399.116 C 240.749 397.739,243.712 397.178,244.008 396.995 C 244.177 396.891,245.459 396.546,246.857 396.228 C 251.154 395.251,252.891 394.809,255.800 393.952 C 285.428 385.219,310.995 371.096,334.600 350.423 C 360.400 327.829,383.650 291.548,392.800 259.600 C 393.273 257.950,393.817 256.150,394.009 255.600 C 394.759 253.451,396.978 244.242,397.814 239.800 C 399.917 228.641,399.800 230.979,399.800 200.000 C 399.800 168.780,399.908 170.793,397.623 159.400 C 392.609 134.397,382.304 109.793,367.633 87.800 C 365.285 84.280,363.068 81.040,362.706 80.600 C 362.343 80.160,360.659 78.000,358.962 75.800 C 357.266 73.600,355.230 71.062,354.439 70.159 C 353.647 69.257,351.928 67.277,350.617 65.759 C 344.929 59.173,335.814 50.494,326.677 42.964 C 313.792 32.345,288.477 17.314,277.200 13.586 C 276.650 13.405,274.877 12.703,273.259 12.028 C 269.834 10.598,259.678 7.133,256.200 6.207 C 247.871 3.991,242.839 2.758,239.739 2.173 C 237.792 1.807,234.760 1.231,233.000 0.894 C 230.012 0.323,172.726 -0.306,171.400 0.218 M208.800 55.009 C 230.438 58.556,247.472 77.145,249.594 99.531 C 250.121 105.085,250.127 235.481,249.601 240.889 C 244.085 297.584,163.715 301.835,151.136 246.098 C 150.158 241.767,149.443 144.231,150.378 142.800 C 150.709 142.294,152.607 142.182,162.531 142.083 L 174.292 141.966 175.201 140.999 C 176.455 139.664,176.447 137.128,175.185 135.784 L 174.261 134.800 162.904 134.800 C 149.381 134.800,150.000 134.979,150.000 131.066 C 150.000 126.954,149.207 127.200,162.436 127.200 C 175.125 127.200,175.233 127.179,175.940 124.600 C 177.174 120.096,175.777 119.600,161.863 119.600 C 148.964 119.600,150.000 119.914,150.000 116.000 C 150.000 112.089,149.000 112.400,161.583 112.400 C 168.288 112.400,173.157 112.234,173.883 111.981 C 176.249 111.156,176.890 107.654,175.018 105.782 L 174.036 104.800 162.467 104.800 C 148.759 104.800,149.859 105.276,150.402 99.583 C 153.196 70.253,179.466 50.202,208.800 55.009 M142.371 204.647 C 144.642 205.988,144.581 205.463,144.836 226.000 C 145.118 248.647,145.489 250.945,150.494 261.000 C 170.653 301.505,229.195 301.732,249.320 261.383 C 254.657 250.683,255.597 244.586,255.599 220.660 L 255.600 206.720 256.960 205.360 C 259.795 202.525,263.970 204.263,264.613 208.545 C 265.268 212.916,264.548 242.317,263.665 247.244 C 258.604 275.478,236.193 296.866,207.918 300.448 C 205.873 300.707,204.068 301.117,203.906 301.359 C 203.554 301.887,203.494 336.857,203.843 337.767 C 204.053 338.316,205.193 338.400,212.463 338.400 C 222.927 338.400,223.600 338.639,223.600 342.363 C 223.600 343.456,223.321 344.123,222.568 344.830 L 221.536 345.800 200.000 345.800 L 178.464 345.800 177.432 344.830 C 176.679 344.123,176.400 343.456,176.400 342.363 C 176.400 338.639,177.073 338.400,187.537 338.400 C 194.807 338.400,195.947 338.316,196.157 337.767 C 196.506 336.857,196.446 301.888,196.094 301.354 C 195.932 301.109,194.720 300.782,193.400 300.627 C 164.187 297.202,141.505 275.986,136.331 247.244 C 135.447 242.331,134.731 212.919,135.390 208.530 C 135.946 204.823,139.409 202.897,142.371 204.647 " stroke="none" fill="#ff4141" fill-rule="evenodd"></path></g></svg>